<svg width="24" height="24" viewBox="0 0 24 24" fill="none" xmlns="http://www.w3.org/2000/svg">
<path d="M12 7.5V8.5" stroke="#083400" stroke-width="1.5" stroke-linecap="round" stroke-linejoin="round"/>
<path d="M12 16.5V15.5" stroke="#083400" stroke-width="1.5" stroke-linecap="round" stroke-linejoin="round"/>
<path d="M9.8587 14.25C10.052 14.6468 10.3586 14.9773 10.7398 15.1998C11.1209 15.4223 11.5595 15.5268 12 15.5C12.5289 15.5578 13.0595 15.4074 13.4795 15.0807C13.8994 14.7541 14.1758 14.2768 14.25 13.75C14.25 13.3834 14.123 13.0282 13.8906 12.7447C13.6582 12.4612 13.3347 12.267 12.9753 12.1951L11.0247 11.805C10.6653 11.7331 10.3418 11.5389 10.1094 11.2554C9.87701 10.9719 9.75 10.6166 9.75 10.25C9.82423 9.72318 10.1006 9.24592 10.5205 8.91929C10.9405 8.59265 11.4711 8.44228 12 8.50002C12.4405 8.47326 12.8791 8.57774 13.2602 8.80024C13.6414 9.02273 13.948 9.35326 14.1413 9.75002" stroke="#083400" stroke-width="1.5" stroke-linecap="round" stroke-linejoin="round"/>
<path d="M16 3H8C5.23858 3 3 5.23858 3 8V16C3 18.7614 5.23858 21 8 21H16C18.7614 21 21 18.7614 21 16V8C21 5.23858 18.7614 3 16 3Z" stroke="#083400" stroke-width="1.5" stroke-linecap="round" stroke-linejoin="round"/>
</svg>
