<svg width="24" height="24" viewBox="0 0 24 24" fill="none" xmlns="http://www.w3.org/2000/svg">
<g clip-path="url(#clip0_12_15741)">
<path d="M21 9.5V6.5C21 5.83696 20.7366 5.20107 20.2678 4.73223C19.7989 4.26339 19.163 4 18.5 4H5.5C4.83696 4 4.20107 4.26339 3.73223 4.73223C3.26339 5.20107 3 5.83696 3 6.5V10" stroke="#083400" stroke-width="1.5" stroke-linecap="round" stroke-linejoin="round"/>
<path d="M21 14.5V17.5C21 18.163 20.7366 18.7989 20.2678 19.2678C19.7989 19.7366 19.163 20 18.5 20H16" stroke="#083400" stroke-width="1.5" stroke-linecap="round" stroke-linejoin="round"/>
<path d="M18.5 9.5H21C21.2652 9.5 21.5196 9.60536 21.7071 9.79289C21.8946 9.98043 22 10.2348 22 10.5V13.5C22 13.7652 21.8946 14.0196 21.7071 14.2071C21.5196 14.3946 21.2652 14.5 21 14.5H18.5C17.837 14.5 17.2011 14.2366 16.7322 13.7678C16.2634 13.2989 16 12.663 16 12C16 11.337 16.2634 10.7011 16.7322 10.2322C17.2011 9.76339 17.837 9.5 18.5 9.5Z" stroke="#083400" stroke-width="1.5" stroke-linecap="round" stroke-linejoin="round"/>
<path d="M3 15V19C3 19.5304 3.21071 20.0391 3.58579 20.4142C3.96086 20.7893 4.46957 21 5 21H11C11.5304 21 12.0391 20.7893 12.4142 20.4142C12.7893 20.0391 13 19.5304 13 19V15C13 14.4696 12.7893 13.9609 12.4142 13.5858C12.0391 13.2107 11.5304 13 11 13H5C4.46957 13 3.96086 13.2107 3.58579 13.5858C3.21071 13.9609 3 14.4696 3 15Z" stroke="#083400" stroke-width="1.5" stroke-linecap="round" stroke-linejoin="round"/>
<path d="M13 16.5H3" stroke="#083400" stroke-width="1.5" stroke-linecap="round" stroke-linejoin="round"/>
</g>
<defs>
<clipPath id="clip0_12_15741">
<rect width="24" height="24" fill="white"/>
</clipPath>
</defs>
</svg>
