<svg width="24" height="24" viewBox="0 0 24 24" fill="none" xmlns="http://www.w3.org/2000/svg">
<g clip-path="url(#clip0_13_15772)">
<path d="M9.48225 19.741C9.77725 19.702 10.0753 19.782 10.3103 19.963L11.3932 20.794C11.7512 21.069 12.2492 21.069 12.6062 20.794L13.7302 19.931C13.9402 19.77 14.2052 19.699 14.4672 19.734L15.8733 19.919C16.3203 19.978 16.7512 19.729 16.9242 19.312L17.4653 18.004C17.5663 17.759 17.7602 17.565 18.0052 17.464L19.3132 16.923C19.7302 16.751 19.9792 16.319 19.9202 15.872L19.7423 14.517C19.7033 14.222 19.7833 13.924 19.9643 13.689L20.7952 12.606C21.0702 12.248 21.0702 11.75 20.7952 11.393L19.9322 10.269C19.7712 10.059 19.7003 9.79401 19.7353 9.53201L19.9202 8.12601C19.9792 7.67901 19.7302 7.24801 19.3132 7.07501L18.0052 6.53401C17.7602 6.43301 17.5663 6.23901 17.4653 5.99401L16.9242 4.68601C16.7522 4.26901 16.3203 4.02001 15.8733 4.07901L14.4672 4.26401C14.2052 4.30001 13.9402 4.22901 13.7312 4.06901L12.6073 3.20601C12.2493 2.93101 11.7512 2.93101 11.3942 3.20601L10.2703 4.06901C10.0603 4.22901 9.79525 4.30001 9.53325 4.26601L8.12725 4.08101C7.68025 4.02201 7.24925 4.27101 7.07625 4.68801L6.53625 5.99601C6.43425 6.24001 6.24025 6.43401 5.99625 6.53601L4.68825 7.07601C4.27125 7.24901 4.02225 7.68001 4.08125 8.12701L4.26625 9.53301C4.30025 9.79501 4.22925 10.06 4.06925 10.269L3.20625 11.393C2.93125 11.751 2.93125 12.249 3.20625 12.606L4.06925 13.73C4.23025 13.94 4.30125 14.205 4.26625 14.467L4.08125 15.873C4.02225 16.32 4.27125 16.751 4.68825 16.924L5.99625 17.465C6.24125 17.566 6.43525 17.76 6.53625 18.005L7.07725 19.313C7.24925 19.73 7.68125 19.979 8.12825 19.92L9.48225 19.741Z" stroke="#083400" stroke-width="1.5" stroke-linecap="round" stroke-linejoin="round"/>
<path d="M14.7992 10.6011L11.2982 14.1021L9.19922 12.0021" stroke="#083400" stroke-width="1.5" stroke-linecap="round" stroke-linejoin="round"/>
</g>
<defs>
<clipPath id="clip0_13_15772">
<rect width="24" height="24" fill="white"/>
</clipPath>
</defs>
</svg>
