<svg width="24" height="24" viewBox="0 0 24 24" fill="none" xmlns="http://www.w3.org/2000/svg">
<g clip-path="url(#clip0_12_15757)">
<path d="M11.3984 7V12.602H16.0484" stroke="#083400" stroke-width="1.5" stroke-linecap="round" stroke-linejoin="round"/>
<path d="M3 15H8" stroke="#083400" stroke-width="1.5" stroke-linecap="round" stroke-linejoin="round"/>
<path d="M8 18H5" stroke="#083400" stroke-width="1.5" stroke-linecap="round" stroke-linejoin="round"/>
<path d="M8 21H7" stroke="#083400" stroke-width="1.5" stroke-linecap="round" stroke-linejoin="round"/>
<path d="M3.05859 11.0001C3.25193 9.27381 3.9408 7.64038 5.04203 6.29698C6.14327 4.95359 7.6098 3.95764 9.2646 3.42938C10.9194 2.90111 12.6917 2.8631 14.3677 3.31994C16.0436 3.77677 17.5515 4.70893 18.7093 6.00388C19.8671 7.29883 20.6254 8.90122 20.8925 10.6176C21.1597 12.334 20.9244 14.0911 20.2149 15.6767C19.5055 17.2623 18.3523 18.6087 16.8945 19.5533C15.4367 20.4979 13.7367 21.0004 11.9996 21.0001" stroke="#083400" stroke-width="1.5" stroke-linecap="round" stroke-linejoin="round"/>
</g>
<defs>
<clipPath id="clip0_12_15757">
<rect width="24" height="24" fill="white"/>
</clipPath>
</defs>
</svg>
