<svg width="21" height="18" viewBox="0 0 21 18" fill="none" xmlns="http://www.w3.org/2000/svg">
<g clip-path="url(#clip0_4_10615)">
<path fill-rule="evenodd" clip-rule="evenodd" d="M20.9079 2.68524C17.7764 4.17704 16.2106 5.92989 16.2106 7.94383C17.5454 8.09301 18.6491 8.62135 19.5218 9.52887C20.3945 10.4364 20.8309 11.4868 20.8309 12.6803C20.8309 13.9483 20.4074 15.0174 19.5603 15.8877C18.7133 16.7579 17.6481 17.193 16.3646 17.193C14.9272 17.193 13.6823 16.6273 12.6299 15.4961C11.5775 14.3648 11.0513 12.9911 11.0513 11.375C11.0513 6.5266 13.8491 2.73498 19.4448 0L20.9079 2.68524ZM9.85658 2.68524C6.69938 4.17704 5.1208 5.92989 5.1208 7.94383C6.48122 8.09301 7.59778 8.62135 8.4705 9.52887C9.34322 10.4364 9.77958 11.4868 9.77958 12.6803C9.77958 13.9483 9.34964 15.0174 8.48975 15.8877C7.62986 16.7579 6.55823 17.193 5.27481 17.193C3.83739 17.193 2.59891 16.6273 1.55934 15.4961C0.519776 14.3648 0 12.9911 0 11.375C0 6.5266 2.78497 2.73498 8.355 0L9.85658 2.68524Z" fill="#22282B"/>
</g>
<defs>
<clipPath id="clip0_4_10615">
<rect width="21" height="17.193" fill="white"/>
</clipPath>
</defs>
</svg>
