<svg xmlns="http://www.w3.org/2000/svg" width="100%" height="auto" viewBox="0 0 1512 391" fill="none" preserveAspectRatio="xMidYMin slice" style="display: block;"><g opacity="0.15"><mask id="path-1-inside-base-r0" fill="white"><path d="M354 383C354 387.418 350.418 391 346 391H295C290.582 391 287 387.418 287 383V332C287 327.582 290.582 324 295 324H346C350.418 324 354 327.582 354 332V383ZM1260 360C1260 364.418 1256.42 368 1252 368H1201C1196.58 368 1193 364.418 1193 360V309C1193 304.582 1196.58 301 1201 301H1252C1256.42 301 1260 304.582 1260 309V360ZM201 304C201 308.418 197.418 312 193 312H142C137.582 312 134 308.418 134 304V253C134 248.582 137.582 245 142 245H201V304ZM1512 47C1512 51.4183 1508.42 55 1504 55H1453C1448.58 55 1445 58.5817 1445 63V105C1445 109.418 1441.42 113 1437 113H1395C1390.58 113 1387 116.582 1387 121V171C1387 175.418 1383.42 179 1379 179H1328C1323.58 179 1320 182.582 1320 187V231C1320 235.418 1323.58 239 1328 239H1377C1381.42 239 1385 242.582 1385 247V298C1385 302.418 1381.42 306 1377 306H1326C1321.58 306 1318 302.418 1318 298V252C1318 247.582 1314.42 244 1310 244H1261C1256.58 244 1253 240.418 1253 236V200C1253 195.582 1249.42 192 1245 192H1195C1190.58 192 1187 188.418 1187 184V133C1187 128.582 1190.58 125 1195 125H1246C1250.42 125 1254 128.582 1254 133V170C1254 174.418 1257.58 178 1262 178H1312C1316.42 178 1320 174.418 1320 170V120C1320 115.582 1323.58 112 1328 112H1370C1374.42 112 1378 108.418 1378 104V55C1378 50.5817 1381.58 47 1386 47H1437C1441.42 47 1445 43.4183 1445 39V-4C1445 -8.41828 1448.58 -12 1453 -12H1504C1508.42 -12 1512 -8.41828 1512 -4V47ZM67 46C67 50.4183 70.5817 54 75 54H126C130.418 54 134 57.5817 134 62V105C134 109.418 137.582 113 142 113H193C197.418 113 201 116.582 201 121V171C201 175.418 204.582 179 209 179H260C264.418 179 268 175.418 268 171V128C268 123.582 271.582 120 276 120H322C326.418 120 330 116.418 330 112V63C330 58.5817 326.418 55 322 55H276C271.582 55 268 51.4183 268 47V-4C268 -8.41828 271.582 -12 276 -12H327C331.418 -12 335 -8.41828 335 -4V46C335 50.4183 338.582 54 343 54H387C391.418 54 395 50.4183 395 46V8C395 3.58172 398.582 0 403 0H454C458.418 0 462 3.58172 462 8V58C462 62.4183 458.418 66 454 66H405C400.582 66 397 69.5817 397 74V112C397 116.418 393.418 120 389 120H343C338.582 120 335 123.582 335 128V179C335 183.418 331.418 187 327 187H276C271.582 187 268 190.582 268 195V237C268 241.418 264.418 245 260 245H201V188C201 183.582 197.418 180 193 180H142C137.582 180 134 176.418 134 172V128C134 123.582 130.418 120 126 120H75C70.5817 120 67 123.582 67 128V175C67 179.418 63.4183 183 59 183H8C3.58172 183 0 179.418 0 175V124C0 119.582 3.58172 116 8 116H59C63.4183 116 67 112.418 67 108V63C67 58.5817 63.4183 55 59 55H8C3.58172 55 0 51.4183 0 47V-4C0 -8.41828 3.58172 -12 8 -12H59C63.4183 -12 67 -8.41828 67 -4V46ZM1512 179C1512 183.418 1508.42 187 1504 187H1453C1448.58 187 1445 183.418 1445 179V128C1445 123.582 1448.58 120 1453 120H1504C1508.42 120 1512 123.582 1512 128V179ZM621 37C621 41.4183 624.582 45 629 45H675C679.418 45 683 48.5817 683 53V103C683 107.418 679.418 111 675 111H624C619.582 111 616 107.418 616 103V60C616 55.5817 612.418 52 608 52H562C557.582 52 554 48.4183 554 44V-6C554 -10.4183 557.582 -14 562 -14H613C617.418 -14 621 -10.4183 621 -6V37ZM1110 79C1110 83.4183 1106.42 87 1102 87H1051C1046.58 87 1043 83.4183 1043 79V29C1043 24.5817 1046.58 21 1051 21H1102C1106.42 21 1110 24.5817 1110 29V79Z"></path></mask><path d="M346 391V390H295V391V392H346V391ZM287 383H288V332H287H286V383H287ZM295 324V325H346V324V323H295V324ZM354 332H353V383H354H355V332H354ZM1252 368V367H1201V368V369H1252V368ZM1193 360H1194V309H1193H1192V360H1193ZM1201 301V302H1252V301V300H1201V301ZM1260 309H1259V360H1260H1261V309H1260ZM193 312V311H142V312V313H193V312ZM134 304H135V253H134H133V304H134ZM142 245V246H201V245V244H142V245ZM201 245H200V304H201H202V245H201ZM1504 55V54H1453V55V56H1504V55ZM1445 63H1444V105H1445H1446V63H1445ZM1437 113V112H1395V113V114H1437V113ZM1387 121H1386V171H1387H1388V121H1387ZM1379 179V178H1328V179V180H1379V179ZM1320 187H1319V231H1320H1321V187H1320ZM1328 239V240H1377V239V238H1328V239ZM1385 247H1384V298H1385H1386V247H1385ZM1377 306V305H1326V306V307H1377V306ZM1318 298H1319V252H1318H1317V298H1318ZM1310 244V243H1261V244V245H1310V244ZM1253 236H1254V200H1253H1252V236H1253ZM1245 192V191H1195V192V193H1245V192ZM1187 184H1188V133H1187H1186V184H1187ZM1195 125V126H1246V125V124H1195V125ZM1254 133H1253V170H1254H1255V133H1254ZM1262 178V179H1312V178V177H1262V178ZM1320 170H1321V120H1320H1319V170H1320ZM1328 112V113H1370V112V111H1328V112ZM1378 104H1379V55H1378H1377V104H1378ZM1386 47V48H1437V47V46H1386V47ZM1445 39H1446V-4H1445H1444V39H1445ZM1453 -12V-11H1504V-12V-13H1453V-12ZM1512 -4H1511V47H1512H1513V-4H1512ZM75 54V55H126V54V53H75V54ZM134 62H133V105H134H135V62H134ZM142 113V114H193V113V112H142V113ZM201 121H200V171H201H202V121H201ZM209 179V180H260V179V178H209V179ZM268 171H269V128H268H267V171H268ZM276 120V121H322V120V119H276V120ZM330 112H331V63H330H329V112H330ZM322 55V54H276V55V56H322V55ZM268 47H269V-4H268H267V47H268ZM276 -12V-11H327V-12V-13H276V-12ZM335 -4H334V46H335H336V-4H335ZM343 54V55H387V54V53H343V54ZM395 46H396V8H395H394V46H395ZM403 0V1H454V0V-1H403V0ZM462 8H461V58H462H463V8H462ZM454 66V65H405V66V67H454V66ZM397 74H396V112H397H398V74H397ZM389 120V119H343V120V121H389V120ZM335 128H334V179H335H336V128H335ZM327 187V186H276V187V188H327V187ZM268 195H267V237H268H269V195H268ZM260 245V244H201V245V246H260V245ZM201 245H202V188H201H200V245H201ZM193 180V179H142V180V181H193V180ZM134 172H135V128H134H133V172H134ZM126 120V119H75V120V121H126V120ZM67 128H66V175H67H68V128H67ZM59 183V182H8V183V184H59V183ZM0 175H1V124H0H-1V175H0ZM8 116V117H59V116V115H8V116ZM67 108H68V63H67H66V108H67ZM59 55V54H8V55V56H59V55ZM0 47H1V-4H0H-1V47H0ZM8 -12V-11H59V-12V-13H8V-12ZM67 -4H66V46H67H68V-4H67ZM1504 187V186H1453V187V188H1504V187ZM1445 179H1446V128H1445H1444V179H1445ZM1453 120V121H1504V120V119H1453V120ZM1512 128H1511V179H1512H1513V128H1512ZM629 45V46H675V45V44H629V45ZM683 53H682V103H683H684V53H683ZM675 111V110H624V111V112H675V111ZM616 103H617V60H616H615V103H616ZM608 52V51H562V52V53H608V52ZM554 44H555V-6H554H553V44H554ZM562 -14V-13H613V-14V-15H562V-14ZM621 -6H620V37H621H622V-6H621ZM1102 87V86H1051V87V88H1102V87ZM1043 79H1044V29H1043H1042V79H1043ZM1051 21V22H1102V21V20H1051V21ZM1110 29H1109V79H1110H1111V29H1110ZM1102 21V22C1105.87 22 1109 25.134 1109 29H1110H1111C1111 24.0294 1106.97 20 1102 20V21ZM1043 29H1044C1044 25.134 1047.13 22 1051 22V21V20C1046.03 20 1042 24.0294 1042 29H1043ZM1051 87V86C1047.13 86 1044 82.866 1044 79H1043H1042C1042 83.9706 1046.03 88 1051 88V87ZM1102 87V88C1106.97 88 1111 83.9706 1111 79H1110H1109C1109 82.866 1105.87 86 1102 86V87ZM613 -14V-13C616.866 -13 620 -9.86599 620 -6H621H622C622 -10.9706 617.971 -15 613 -15V-14ZM554 -6H555C555 -9.86599 558.134 -13 562 -13V-14V-15C557.029 -15 553 -10.9706 553 -6H554ZM562 52V51C558.134 51 555 47.866 555 44H554H553C553 48.9706 557.029 53 562 53V52ZM616 60H617C617 55.0294 612.971 51 608 51V52V53C611.866 53 615 56.134 615 60H616ZM624 111V110C620.134 110 617 106.866 617 103H616H615C615 107.971 619.029 112 624 112V111ZM683 103H682C682 106.866 678.866 110 675 110V111V112C679.971 112 684 107.971 684 103H683ZM675 45V46C678.866 46 682 49.134 682 53H683H684C684 48.0294 679.971 44 675 44V45ZM629 45V44C625.134 44 622 40.866 622 37H621H620C620 41.9706 624.029 46 629 46V45ZM1504 120V121C1507.87 121 1511 124.134 1511 128H1512H1513C1513 123.029 1508.97 119 1504 119V120ZM1445 128H1446C1446 124.134 1449.13 121 1453 121V120V119C1448.03 119 1444 123.029 1444 128H1445ZM1453 187V186C1449.13 186 1446 182.866 1446 179H1445H1444C1444 183.971 1448.03 188 1453 188V187ZM1504 187V188C1508.97 188 1513 183.971 1513 179H1512H1511C1511 182.866 1507.87 186 1504 186V187ZM59 -12V-11C62.866 -11 66 -7.86599 66 -4H67H68C68 -8.97056 63.9706 -13 59 -13V-12ZM0 -4H1C1 -7.86599 4.13401 -11 8 -11V-12V-13C3.02944 -13 -1 -8.97056 -1 -4H0ZM8 55V54C4.13401 54 1 50.866 1 47H0H-1C-1 51.9706 3.02944 56 8 56V55ZM67 63H68C68 58.0294 63.9706 54 59 54V55V56C62.866 56 66 59.134 66 63H67ZM59 116V117C63.9706 117 68 112.971 68 108H67H66C66 111.866 62.866 115 59 115V116ZM0 124H1C1 120.134 4.13401 117 8 117V116V115C3.02944 115 -1 119.029 -1 124H0ZM8 183V182C4.13401 182 1 178.866 1 175H0H-1C-1 179.971 3.02944 184 8 184V183ZM67 175H66C66 178.866 62.866 182 59 182V183V184C63.9706 184 68 179.971 68 175H67ZM75 120V119C70.0294 119 66 123.029 66 128H67H68C68 124.134 71.134 121 75 121V120ZM134 128H135C135 123.029 130.971 119 126 119V120V121C129.866 121 133 124.134 133 128H134ZM142 180V179C138.134 179 135 175.866 135 172H134H133C133 176.971 137.029 181 142 181V180ZM201 188H202C202 183.029 197.971 179 193 179V180V181C196.866 181 200 184.134 200 188H201ZM268 237H267C267 240.866 263.866 244 260 244V245V246C264.971 246 269 241.971 269 237H268ZM276 187V186C271.029 186 267 190.029 267 195H268H269C269 191.134 272.134 188 276 188V187ZM335 179H334C334 182.866 330.866 186 327 186V187V188C331.971 188 336 183.971 336 179H335ZM343 120V119C338.029 119 334 123.029 334 128H335H336C336 124.134 339.134 121 343 121V120ZM397 112H396C396 115.866 392.866 119 389 119V120V121C393.971 121 398 116.971 398 112H397ZM405 66V65C400.029 65 396 69.0294 396 74H397H398C398 70.134 401.134 67 405 67V66ZM462 58H461C461 61.866 457.866 65 454 65V66V67C458.971 67 463 62.9706 463 58H462ZM454 0V1C457.866 1 461 4.13401 461 8H462H463C463 3.02944 458.971 -1 454 -1V0ZM395 8H396C396 4.13401 399.134 1 403 1V0V-1C398.029 -1 394 3.02944 394 8H395ZM387 54V55C391.971 55 396 50.9706 396 46H395H394C394 49.866 390.866 53 387 53V54ZM335 46H334C334 50.9706 338.029 55 343 55V54V53C339.134 53 336 49.866 336 46H335ZM268 -4H269C269 -7.86599 272.134 -11 276 -11V-12V-13C271.029 -13 267 -8.97056 267 -4H268ZM276 55V54C272.134 54 269 50.866 269 47H268H267C267 51.9706 271.029 56 276 56V55ZM330 63H331C331 58.0294 326.971 54 322 54V55V56C325.866 56 329 59.134 329 63H330ZM322 120V121C326.971 121 331 116.971 331 112H330H329C329 115.866 325.866 119 322 119V120ZM268 128H269C269 124.134 272.134 121 276 121V120V119C271.029 119 267 123.029 267 128H268ZM260 179V180C264.971 180 269 175.971 269 171H268H267C267 174.866 263.866 178 260 178V179ZM201 171H200C200 175.971 204.029 180 209 180V179V178C205.134 178 202 174.866 202 171H201ZM193 113V114C196.866 114 200 117.134 200 121H201H202C202 116.029 197.971 112 193 112V113ZM134 105H133C133 109.971 137.029 114 142 114V113V112C138.134 112 135 108.866 135 105H134ZM126 54V55C129.866 55 133 58.134 133 62H134H135C135 57.0294 130.971 53 126 53V54ZM75 54V53C71.134 53 68 49.866 68 46H67H66C66 50.9706 70.0294 55 75 55V54ZM1504 -12V-11C1507.87 -11 1511 -7.86599 1511 -4H1512H1513C1513 -8.97056 1508.97 -13 1504 -13V-12ZM1445 -4H1446C1446 -7.86599 1449.13 -11 1453 -11V-12V-13C1448.03 -13 1444 -8.97056 1444 -4H1445ZM1437 47V48C1441.97 48 1446 43.9706 1446 39H1445H1444C1444 42.866 1440.87 46 1437 46V47ZM1378 55H1379C1379 51.134 1382.13 48 1386 48V47V46C1381.03 46 1377 50.0294 1377 55H1378ZM1370 112V113C1374.97 113 1379 108.971 1379 104H1378H1377C1377 107.866 1373.87 111 1370 111V112ZM1320 120H1321C1321 116.134 1324.13 113 1328 113V112V111C1323.03 111 1319 115.029 1319 120H1320ZM1312 178V179C1316.97 179 1321 174.971 1321 170H1320H1319C1319 173.866 1315.87 177 1312 177V178ZM1254 170H1253C1253 174.971 1257.03 179 1262 179V178V177C1258.13 177 1255 173.866 1255 170H1254ZM1246 125V126C1249.87 126 1253 129.134 1253 133H1254H1255C1255 128.029 1250.97 124 1246 124V125ZM1187 133H1188C1188 129.134 1191.13 126 1195 126V125V124C1190.03 124 1186 128.029 1186 133H1187ZM1195 192V191C1191.13 191 1188 187.866 1188 184H1187H1186C1186 188.971 1190.03 193 1195 193V192ZM1253 200H1254C1254 195.029 1249.97 191 1245 191V192V193C1248.87 193 1252 196.134 1252 200H1253ZM1318 252H1319C1319 247.029 1314.97 243 1310 243V244V245C1313.87 245 1317 248.134 1317 252H1318ZM1326 306V305C1322.13 305 1319 301.866 1319 298H1318H1317C1317 302.971 1321.03 307 1326 307V306ZM1385 298H1384C1384 301.866 1380.87 305 1377 305V306V307C1381.97 307 1386 302.971 1386 298H1385ZM1377 239V240C1380.87 240 1384 243.134 1384 247H1385H1386C1386 242.029 1381.97 238 1377 238V239ZM1320 231H1319C1319 235.971 1323.03 240 1328 240V239V238C1324.13 238 1321 234.866 1321 231H1320ZM1328 179V178C1323.03 178 1319 182.029 1319 187H1320H1321C1321 183.134 1324.13 180 1328 180V179ZM1387 171H1386C1386 174.866 1382.87 178 1379 178V179V180C1383.97 180 1388 175.971 1388 171H1387ZM1395 113V112C1390.03 112 1386 116.029 1386 121H1387H1388C1388 117.134 1391.13 114 1395 114V113ZM1445 105H1444C1444 108.866 1440.87 112 1437 112V113V114C1441.97 114 1446 109.971 1446 105H1445ZM1453 55V54C1448.03 54 1444 58.0294 1444 63H1445H1446C1446 59.134 1449.13 56 1453 56V55ZM1504 55V56C1508.97 56 1513 51.9706 1513 47H1512H1511C1511 50.866 1507.87 54 1504 54V55ZM134 253H135C135 249.134 138.134 246 142 246V245V244C137.029 244 133 248.029 133 253H134ZM142 312V311C138.134 311 135 307.866 135 304H134H133C133 308.971 137.029 313 142 313V312ZM193 312V313C197.971 313 202 308.971 202 304H201H200C200 307.866 196.866 311 193 311V312ZM1252 301V302C1255.87 302 1259 305.134 1259 309H1260H1261C1261 304.029 1256.97 300 1252 300V301ZM1193 309H1194C1194 305.134 1197.13 302 1201 302V301V300C1196.03 300 1192 304.029 1192 309H1193ZM1201 368V367C1197.13 367 1194 363.866 1194 360H1193H1192C1192 364.971 1196.03 369 1201 369V368ZM1252 368V369C1256.97 369 1261 364.971 1261 360H1260H1259C1259 363.866 1255.87 367 1252 367V368ZM346 324V325C349.866 325 353 328.134 353 332H354H355C355 327.029 350.971 323 346 323V324ZM287 332H288C288 328.134 291.134 325 295 325V324V323C290.029 323 286 327.029 286 332H287ZM295 391V390C291.134 390 288 386.866 288 383H287H286C286 387.971 290.029 392 295 392V391ZM1261 244V243C1257.13 243 1254 239.866 1254 236H1253H1252C1252 240.971 1256.03 245 1261 245V244ZM327 -12V-11C330.866 -11 334 -7.86599 334 -4H335H336C336 -8.97056 331.971 -13 327 -13V-12ZM346 391V392C350.971 392 355 387.971 355 383H354H353C353 386.866 349.866 390 346 390V391Z" fill="url(#paint0_linear_base-r0)" mask="url(#path-1-inside-base-r0)"></path></g><defs><linearGradient id="paint0_linear_base-r0" x1="756" y1="-14" x2="756" y2="391" gradientUnits="userSpaceOnUse"><stop offset="0.290677" stop-color="#000000"></stop><stop offset="0.659192" stop-color="#000000" stop-opacity="0"></stop></linearGradient></defs></svg>